<svg width="14" height="14" viewBox="0 0 14 14" fill="none" xmlns="http://www.w3.org/2000/svg">
<path fill-rule="evenodd" clip-rule="evenodd" d="M6.55397 0L6.53576 0.0184941H6.48114L6.46294 0.0369881H6.44473L6.42653 0.0554822H6.39012L6.37191 0.0739762H6.35371L6.3173 0.110964H6.29909L6.26268 0.147952H6.24447L6.11704 0.277411V0.295905L6.08062 0.332893V0.351387L6.06242 0.369881V0.388375L6.04421 0.406869V0.425363L6.02601 0.443857V0.462351L6.0078 0.480845V0.517834L5.9896 0.536328V0.59181L5.97139 0.610304V0.924703L5.95319 0.943197V1.01717L5.97139 1.03567V1.18362L5.95319 1.20211V1.33157L5.97139 1.35007V1.47952L5.95319 1.49802V1.62748L5.97139 1.64597V1.77543L5.95319 1.79392V1.92338L5.97139 1.94188V2.07133L5.95319 2.08983V2.21929L5.97139 2.23778V2.34875L5.95319 2.36724V2.68164L5.93498 2.70013H5.24317L5.22497 2.68164H5.17035L5.15215 2.66314H5.13394L5.11573 2.64465H5.09753L5.07932 2.62616H5.06112L4.93368 2.4967V2.4782L4.91548 2.45971V2.44122L4.89727 2.42272V2.40423L4.87906 2.38573V2.33025L4.86086 2.31176V1.29458L4.84265 1.27609V1.20211L4.82445 1.18362V1.14663L4.80624 1.12814V1.09115L4.78804 1.07266V1.05416L4.76983 1.03567V1.01717L4.75163 0.998679V0.980185L4.71521 0.943197V0.924703L4.64239 0.850727V0.832233L4.62419 0.813738H4.60598L4.51495 0.721268H4.49675L4.46034 0.68428H4.44213L4.42393 0.665786H4.40572L4.38752 0.647292H4.36931L4.35111 0.628798H4.3329L4.31469 0.610304H4.29649L4.27828 0.59181H4.24187L4.22367 0.573316H4.16905L4.15085 0.554822H3.55006L3.53186 0.573316H3.47724L3.45904 0.59181H3.42263L3.40442 0.610304H3.38622L3.36801 0.628798H3.34981L3.3316 0.647292H3.31339L3.29519 0.665786H3.27698L3.24057 0.702774H3.22237L3.18596 0.739762H3.16775L3.0039 0.906209V0.924703L2.94929 0.980185V0.998679L2.93108 1.01717V1.03567L2.91287 1.05416V1.07266L2.89467 1.09115V1.10964L2.87646 1.12814V1.16513L2.85826 1.18362V1.2391L2.84005 1.2576V2.53369L2.82185 2.55218V2.7926L2.80364 2.8111H1.47464L1.45644 2.82959H1.40182L1.38362 2.84808H1.3472L1.329 2.86658H1.29259L1.27438 2.88507H1.23797L1.21977 2.90357H1.20156L1.18336 2.92206H1.16515L1.12874 2.95905H1.11053L1.07412 2.99604H1.05592L0.855657 3.19947V3.21797L0.80104 3.27345V3.29194L0.764629 3.32893V3.36592L0.728218 3.40291V3.43989L0.710013 3.45839V3.49538L0.691808 3.51387V3.53236L0.673602 3.55086V3.60634L0.655397 3.62483V3.7358L0.637191 3.75429V4.01321L0.655397 4.0317V4.12417L0.673602 4.14267V4.21664L0.691808 4.23514V4.27213L0.710013 4.29062V4.32761L0.728218 4.3461V4.3646L0.746424 4.38309V4.40159L0.764629 4.42008V4.43857L0.80104 4.47556V4.49406L0.837451 4.53104V4.54954L0.96489 4.679H0.983095L1.01951 4.71598H1.03771L1.07412 4.75297H1.09233L1.11053 4.77147H1.12874L1.14694 4.78996H1.18336L1.20156 4.80845H1.21977L1.23797 4.82695H1.29259L1.31079 4.84544H1.40182L1.42003 4.86394H2.36671L2.38492 4.88243H2.42133L2.43953 4.90092H2.45774L2.47594 4.91942H2.49415L2.54876 4.9749H2.56697L2.60338 5.01189V5.03038L2.658 5.08587V5.10436L2.6762 5.12285V5.14135L2.69441 5.15984V5.17834L2.71261 5.19683V5.25231L2.73082 5.27081V5.97358L2.71261 5.99207H0.80104L0.782835 6.01057H0.637191L0.618986 6.02906H0.564369L0.546164 6.04756H0.509753L0.491548 6.06605H0.455137L0.436931 6.08454H0.418726L0.40052 6.10304H0.382315L0.345904 6.14003H0.327698L0.291287 6.17701H0.273082L0.127438 6.32497V6.34346L0.0910273 6.38045V6.39894L0.0728219 6.41744V6.43593L0.0546164 6.45443V6.47292L0.0364109 6.49141V6.5284L0.0182055 6.5469V6.60238L0 6.62087V7.50859L0.0182055 7.52708V7.58256L0.0364109 7.60106V7.61955L0.0546164 7.63805V7.67503L0.0910273 7.71202V7.73052L0.109233 7.74901V7.7675L0.20026 7.85997V7.87847H0.218466L0.309493 7.97094H0.327698L0.364109 8.00793H0.382315L0.40052 8.02642H0.418726L0.436931 8.04491H0.473342L0.491548 8.06341H0.509753L0.527958 8.0819H0.564369L0.582575 8.1004H0.655397L0.673602 8.11889H0.80104L0.819246 8.13739H2.71261L2.73082 8.15588V8.80317L2.71261 8.82166V8.89564L2.69441 8.91413V8.95112L2.6762 8.96962V8.98811L2.63979 9.0251V9.04359L2.53056 9.15456H2.51235L2.47594 9.19155H2.45774L2.43953 9.21004H2.40312L2.38492 9.22853H2.31209L2.29389 9.24703H1.36541L1.3472 9.26552H1.29259L1.27438 9.28402H1.23797L1.21977 9.30251H1.18336L1.16515 9.321H1.14694L1.12874 9.3395H1.11053L1.07412 9.37649H1.05592L1.01951 9.41347H1.0013L0.819246 9.59842V9.61691L0.782835 9.6539V9.67239L0.764629 9.69089V9.70938L0.746424 9.72787V9.74637L0.728218 9.76486V9.78336L0.710013 9.80185V9.83884L0.691808 9.85733V9.89432L0.673602 9.91281V9.9683L0.655397 9.98679V10.1347L0.637191 10.1532V10.2827L0.655397 10.3012V10.4491L0.673602 10.4676V10.5231L0.691808 10.5416V10.5786L0.710013 10.5971V10.6341L0.728218 10.6526V10.6711L0.746424 10.6896V10.7081L0.764629 10.7266V10.745L0.782835 10.7635V10.782L0.819246 10.819V10.8375L0.873862 10.893V10.9115L1.01951 11.0594H1.03771L1.11053 11.1334H1.12874L1.14694 11.1519H1.16515L1.18336 11.1704H1.20156L1.21977 11.1889H1.23797L1.25618 11.2074H1.27438L1.29259 11.2259H1.329L1.3472 11.2444H1.36541L1.38362 11.2629H1.43823L1.45644 11.2814H2.49415L2.51235 11.2999H2.58518L2.60338 11.2814H2.658L2.6762 11.2999H2.69441L2.71261 11.2814H2.76723L2.78544 11.2999H2.82185L2.84005 11.3184V12.7239L2.85826 12.7424V12.8164L2.87646 12.8349V12.8719L2.89467 12.8904V12.9089L2.91287 12.9273V12.9458L2.93108 12.9643V12.9828L2.96749 13.0198V13.0383L3.02211 13.0938V13.1123L3.13134 13.2233H3.14954L3.20416 13.2787H3.22237L3.25878 13.3157H3.27698L3.29519 13.3342H3.31339L3.3316 13.3527H3.34981L3.36801 13.3712H3.40442L3.42263 13.3897H3.45904L3.47724 13.4082H3.53186L3.55006 13.4267H4.15085L4.16905 13.4082H4.22367L4.24187 13.3897H4.27828L4.29649 13.3712H4.3329L4.35111 13.3527H4.36931L4.38752 13.3342H4.40572L4.42393 13.3157H4.44213L4.46034 13.2972H4.47854L4.51495 13.2602H4.53316L4.69701 13.0938V13.0753L4.73342 13.0383V13.0198L4.76983 12.9828V12.9643L4.78804 12.9458V12.9089L4.80624 12.8904V12.8719L4.82445 12.8534V12.8164L4.84265 12.7979V12.7239L4.86086 12.7054V11.7252L4.87906 11.7067V11.6328L4.89727 11.6143V11.5958L4.91548 11.5773V11.5588L4.93368 11.5403V11.5218L5.07932 11.3738H5.09753L5.11573 11.3554H5.13394L5.15215 11.3369H5.20676L5.22497 11.3184H5.93498L5.97139 11.3554L5.95319 11.3738V11.3923L5.97139 11.4108V13.3712L5.9896 13.3897V13.4452L6.0078 13.4637V13.5007L6.02601 13.5192V13.5376L6.04421 13.5561V13.5931L6.08062 13.6301V13.6486L6.09883 13.6671V13.6856L6.28088 13.8705H6.29909L6.3173 13.889H6.3355L6.37191 13.926H6.40832L6.42653 13.9445H6.44473L6.46294 13.963H6.51756L6.53576 13.9815H6.60858L6.62679 14H7.39142L7.40962 13.9815H7.48245L7.50065 13.963H7.53706L7.55527 13.9445H7.59168L7.60988 13.926H7.62809L7.64629 13.9075H7.6645L7.70091 13.8705H7.71912L7.81014 13.7781H7.82835V13.7596L7.88296 13.7041V13.6856L7.91938 13.6486V13.6301L7.93758 13.6116V13.5931L7.95579 13.5746V13.5561L7.97399 13.5376V13.5192L7.9922 13.5007V13.4452L8.0104 13.4267V13.3527L8.02861 13.3342V11.3369L8.04681 11.3184H8.75683L8.77503 11.3369H8.82965L8.84786 11.3554H8.86606L8.88427 11.3738H8.90247L8.92068 11.3923H8.93888L9.04811 11.5033V11.5218L9.08453 11.5588V11.5958L9.10273 11.6143V11.6328L9.12094 11.6513V12.6499L9.13914 12.6684V12.7794L9.15735 12.7979V12.8349L9.17555 12.8534V12.8904L9.19376 12.9089V12.9273L9.21196 12.9458V12.9643L9.23017 12.9828V13.0013L9.26658 13.0383V13.0568L9.3212 13.1123V13.1308L9.39402 13.2048H9.41222L9.46684 13.2602H9.48505L9.52146 13.2972H9.53966L9.55787 13.3157H9.57607L9.59428 13.3342H9.61248L9.63069 13.3527H9.64889L9.6671 13.3712H9.68531L9.70351 13.3897H9.75813L9.77633 13.4082H9.83095L9.84915 13.4267H10.4681L10.4863 13.4082H10.541L10.5592 13.3897H10.5956L10.6138 13.3712H10.632L10.6502 13.3527H10.6866L10.7048 13.3342H10.723L10.7594 13.2972H10.7776L10.814 13.2602H10.8323L10.9961 13.0938V13.0753L11.0507 13.0198V13.0013L11.0689 12.9828V12.9643L11.0871 12.9458V12.9273L11.1053 12.9089V12.8719L11.1235 12.8534V12.8164L11.1417 12.7979V12.7239L11.1599 12.7054V11.3184L11.1782 11.2999H11.1964L11.2146 11.2814H12.5254L12.5436 11.2629H12.5982L12.6164 11.2444H12.6528L12.671 11.2259H12.7074L12.7256 11.2074H12.7438L12.762 11.1889H12.7802L12.7984 11.1704H12.8166L12.8349 11.1519H12.8531L12.8895 11.1149H12.9077L12.9441 11.0779H12.9623L13.1261 10.9115V10.893L13.1625 10.856V10.8375L13.199 10.8005V10.782L13.2354 10.745V10.7266L13.2536 10.7081V10.6896L13.2718 10.6711V10.6341L13.29 10.6156V10.5971L13.3082 10.5786V10.5231L13.3264 10.5046V10.4491L13.3446 10.4306V10.2827L13.3628 10.2642V10.1717L13.3446 10.1532V10.0053L13.3264 9.98679V9.93131L13.3082 9.91281V9.85733L13.29 9.83884V9.80185L13.2718 9.78336V9.76486L13.2536 9.74637V9.72787L13.2354 9.70938V9.69089L13.2172 9.67239V9.6539L13.1625 9.59842V9.57992L12.9987 9.41347H12.9805L12.9441 9.37649H12.9259L12.9077 9.35799H12.8895L12.8531 9.321H12.8349L12.8166 9.30251H12.7802L12.762 9.28402H12.7256L12.7074 9.26552H12.6528L12.6346 9.24703H11.6697L11.6515 9.22853H11.5969L11.5787 9.21004H11.5605L11.5423 9.19155H11.5241L11.5059 9.17305H11.4876L11.4512 9.13606H11.433L11.3966 9.09908V9.08058L11.342 9.0251V9.0066L11.3238 8.98811V8.96962L11.3056 8.95112V8.93263L11.2874 8.91413V8.85865L11.2692 8.84016V8.15588L11.2874 8.13739H13.1625L13.1808 8.11889H13.3446L13.3628 8.1004H13.4174L13.4356 8.0819H13.472L13.4902 8.06341H13.5267L13.5449 8.04491H13.5631L13.5813 8.02642H13.5995L13.6177 8.00793H13.6359L13.6723 7.97094H13.6905L13.7633 7.89696H13.7815L13.8179 7.85997V7.84148L13.8726 7.786V7.7675L13.909 7.73052V7.71202L13.9272 7.69353V7.67503L13.9454 7.65654V7.63805L13.9636 7.61955V7.58256L13.9818 7.56407V7.50859L14 7.49009V6.60238L13.9818 6.58388V6.5469L13.9636 6.5284V6.49141L13.9454 6.47292V6.45443L13.9272 6.43593V6.41744L13.909 6.39894V6.38045L13.8544 6.32497V6.30647L13.7451 6.19551H13.7269L13.6905 6.15852H13.6723L13.6359 6.12153H13.6177L13.5995 6.10304H13.5813L13.5631 6.08454H13.5449L13.5267 6.06605H13.4902L13.472 6.04756H13.4356L13.4174 6.02906H13.381L13.3628 6.01057H13.199L13.1808 5.99207H11.2874L11.2692 5.97358V5.27081L11.2874 5.25231V5.19683L11.3056 5.17834V5.15984L11.3238 5.14135V5.12285L11.342 5.10436V5.08587L11.5059 4.91942H11.5241L11.5423 4.90092H11.5605L11.5787 4.88243H11.6151L11.6333 4.86394H12.5618L12.58 4.84544H12.671L12.6892 4.82695H12.7438L12.762 4.80845H12.7984L12.8166 4.78996H12.8349L12.8531 4.77147H12.8713L12.8895 4.75297H12.9077L12.9259 4.73448H12.9441L12.9623 4.71598H12.9805L13.0533 4.64201H13.0715L13.1079 4.60502V4.58653L13.1808 4.51255V4.49406L13.2172 4.45707V4.43857L13.2354 4.42008V4.40159L13.2536 4.38309V4.3646L13.2718 4.3461V4.32761L13.29 4.30912V4.29062L13.3082 4.27213V4.21664L13.3264 4.19815V4.14267L13.3446 4.12417V3.99472L13.3628 3.97622V3.79128L13.3446 3.77279V3.64333L13.3264 3.62483V3.56935L13.3082 3.55086V3.51387L13.29 3.49538V3.45839L13.2718 3.43989V3.4214L13.2536 3.40291V3.38441L13.2354 3.36592V3.34742L13.2172 3.32893V3.31044L13.1808 3.27345V3.25495L13.1443 3.21797V3.19947L12.9805 3.03303H12.9623L12.9077 2.97754H12.8895L12.8531 2.94055H12.8349L12.8166 2.92206H12.7984L12.7802 2.90357H12.762L12.7438 2.88507H12.7074L12.6892 2.86658H12.671L12.6528 2.84808H12.5982L12.58 2.82959H12.5254L12.5072 2.8111H11.1782L11.1599 2.7926V1.27609L11.1417 1.2576V1.20211L11.1235 1.18362V1.14663L11.1053 1.12814V1.09115L11.0871 1.07266V1.05416L11.0507 1.01717V0.998679L11.0325 0.980185V0.961691L10.9779 0.906209V0.887715L10.8687 0.77675H10.8505L10.7958 0.721268H10.7776L10.7412 0.68428H10.723L10.6866 0.647292H10.6684L10.6502 0.628798H10.6138L10.5956 0.610304H10.5774L10.5592 0.59181H10.5228L10.5046 0.573316H10.4499L10.4317 0.554822H9.83095L9.81274 0.573316H9.75813L9.73992 0.59181H9.70351L9.68531 0.610304H9.6671L9.64889 0.628798H9.63069L9.61248 0.647292H9.59428L9.57607 0.665786H9.55787L9.53966 0.68428H9.52146L9.48505 0.721268H9.46684L9.26658 0.924703V0.943197L9.23017 0.980185V0.998679L9.21196 1.01717V1.03567L9.19376 1.05416V1.09115L9.17555 1.10964V1.12814L9.15735 1.14663V1.20211L9.13914 1.22061V1.31308L9.12094 1.33157V2.33025L9.10273 2.34875V2.38573L9.08453 2.40423V2.42272L9.06632 2.44122V2.45971L9.04811 2.4782V2.4967L8.92068 2.62616H8.90247L8.88427 2.64465H8.86606L8.84786 2.66314H8.82965L8.81144 2.68164H8.72042L8.70221 2.70013H8.04681L8.02861 2.68164V0.647292L8.0104 0.628798V0.554822L7.9922 0.536328V0.49934L7.97399 0.480845V0.462351L7.95579 0.443857V0.406869L7.91938 0.369881V0.351387L7.90117 0.332893V0.314399L7.73732 0.147952H7.71912L7.68271 0.110964H7.6645L7.62809 0.0739762H7.60988L7.59168 0.0554822H7.55527L7.53706 0.0369881H7.51886L7.50065 0.0184941H7.44603L7.42783 0H6.55397ZM6.82705 3.79128L6.84525 3.77279H7.13654L7.15475 3.79128H7.20936L7.22757 3.80978H7.28219L7.30039 3.82827H7.3186L7.3368 3.84676H7.37321L7.39142 3.86526H7.40962L7.42783 3.88375H7.44603L7.48245 3.92074H7.50065L7.55527 3.97622H7.57347L7.6645 4.06869V4.08719L7.73732 4.16116V4.17966L7.77373 4.21664V4.23514L7.79194 4.25363V4.27213L7.81014 4.29062V4.30912L7.82835 4.32761V4.3646L7.84655 4.38309V4.42008L7.86476 4.43857V4.51255L7.88296 4.53104V5.08587L7.90117 5.10436V5.23382L7.91938 5.25231V5.32629L7.93758 5.34478V5.36328L7.95579 5.38177V5.41876L7.97399 5.43725V5.47424L8.0104 5.51123V5.52972L8.02861 5.54822V5.56671L8.06502 5.6037V5.62219L8.10143 5.65918V5.67768L8.30169 5.88111H8.3199L8.35631 5.9181H8.37451L8.41092 5.95509H8.42913L8.44733 5.97358H8.46554L8.48375 5.99207H8.50195L8.52016 6.01057H8.53836L8.55657 6.02906H8.59298L8.61118 6.04756H8.64759L8.6658 6.06605H8.72042L8.73862 6.08454H9.28479L9.30299 6.10304H9.41222L9.43043 6.12153H9.50325L9.52146 6.14003H9.53966L9.55787 6.15852H9.59428L9.61248 6.17701H9.63069L9.64889 6.19551H9.6671L9.68531 6.214H9.70351L9.72172 6.2325H9.73992L9.77633 6.26948H9.79454L9.88557 6.36196H9.90377L9.92198 6.38045V6.39894L10.013 6.49141V6.50991L10.0494 6.5469V6.56539L10.0676 6.58388V6.60238L10.104 6.63937V6.67635L10.1222 6.69485V6.71334L10.1404 6.73184V6.76882L10.1586 6.78732V6.86129L10.1769 6.87979V7.1572L10.1586 7.17569V7.24967L10.1404 7.26816V7.30515L10.1222 7.32365V7.36063L10.104 7.37913V7.39762L10.0858 7.41612V7.43461L10.0676 7.4531V7.4716L10.0312 7.50859V7.52708L9.94018 7.61955V7.63805L9.90377 7.67503H9.88557L9.79454 7.7675H9.77633L9.75813 7.786H9.73992L9.70351 7.82299H9.68531L9.6671 7.84148H9.64889L9.63069 7.85997H9.61248L9.59428 7.87847H9.55787L9.53966 7.89696H9.48505L9.46684 7.91546H9.37581L9.35761 7.93395H8.79324L8.77503 7.95244H8.70221L8.68401 7.97094H8.62939L8.61118 7.98943H8.59298L8.57477 8.00793H8.53836L8.52016 8.02642H8.50195L8.48375 8.04491H8.46554L8.44733 8.06341H8.42913L8.41092 8.0819H8.39272L8.35631 8.11889H8.3381L8.28349 8.17437H8.26528L8.13784 8.30383V8.32233L8.08322 8.37781V8.3963L8.04681 8.43329V8.45178L8.0104 8.48877V8.50727L7.9922 8.52576V8.54425L7.97399 8.56275V8.59974L7.95579 8.61823V8.63672L7.93758 8.65522V8.69221L7.91938 8.7107V8.78468L7.90117 8.80317V8.95112L7.88296 8.96962V9.50595L7.86476 9.52444V9.57992L7.84655 9.59842V9.6354L7.82835 9.6539V9.67239L7.81014 9.69089V9.72787L7.79194 9.74637V9.76486L7.75553 9.80185V9.82034L7.73732 9.83884V9.85733L7.68271 9.91281V9.93131L7.55527 10.0608H7.53706L7.48245 10.1162H7.46424L7.44603 10.1347H7.42783L7.40962 10.1532H7.39142L7.37321 10.1717H7.35501L7.3368 10.1902H7.30039L7.28219 10.2087H7.26398L7.24577 10.2272H7.17295L7.15475 10.2457H6.84525L6.82705 10.2272H6.75423L6.73602 10.2087H6.69961L6.68141 10.1902H6.6632L6.64499 10.1717H6.60858L6.59038 10.1532H6.57217L6.55397 10.1347H6.53576L6.49935 10.0978H6.48114L6.26268 9.87583V9.85733L6.22627 9.82034V9.80185L6.20806 9.78336V9.76486L6.17165 9.72787V9.69089L6.15345 9.67239V9.6539L6.13524 9.6354V9.57992L6.11704 9.56143V9.50595L6.09883 9.48745V8.87715L6.08062 8.85865V8.76618L6.06242 8.74769V8.69221L6.04421 8.67371V8.63672L6.02601 8.61823V8.59974L6.0078 8.58124V8.56275L5.9896 8.54425V8.50727L5.95319 8.47028V8.45178L5.91678 8.41479V8.3963L5.86216 8.34082V8.32233L5.71652 8.17437H5.69831L5.64369 8.11889H5.62549L5.60728 8.1004H5.58908L5.55267 8.06341H5.53446L5.51625 8.04491H5.49805L5.47984 8.02642H5.46164L5.44343 8.00793H5.42523L5.40702 7.98943H5.37061L5.35241 7.97094H5.29779L5.27958 7.95244H5.22497L5.20676 7.93395H4.64239L4.62419 7.91546H4.51495L4.49675 7.89696H4.44213L4.42393 7.87847H4.40572L4.38752 7.85997H4.35111L4.3329 7.84148H4.31469L4.29649 7.82299H4.27828L4.26008 7.80449H4.24187L4.20546 7.7675H4.18726L4.09623 7.67503H4.07802L4.02341 7.61955V7.60106L3.96879 7.54558V7.52708L3.93238 7.49009V7.4716L3.91417 7.4531V7.43461L3.89597 7.41612V7.39762L3.87776 7.37913V7.36063L3.85956 7.34214V7.30515L3.84135 7.28666V7.23118L3.82315 7.21268V7.04624L3.80494 7.02774V7.00925L3.82315 6.99075V6.8428L3.84135 6.82431V6.76882L3.85956 6.75033V6.71334L3.87776 6.69485V6.67635L3.89597 6.65786V6.63937L3.91417 6.62087V6.60238L3.93238 6.58388V6.56539L3.95059 6.5469V6.5284L4.0052 6.47292V6.45443L4.15085 6.30647H4.16905L4.22367 6.25099H4.24187L4.26008 6.2325H4.27828L4.29649 6.214H4.31469L4.3329 6.19551H4.35111L4.36931 6.17701H4.38752L4.40572 6.15852H4.44213L4.46034 6.14003H4.49675L4.51495 6.12153H4.56957L4.58778 6.10304H4.69701L4.71521 6.08454H5.24317L5.26138 6.06605H5.31599L5.3342 6.04756H5.37061L5.38882 6.02906H5.42523L5.44343 6.01057H5.46164L5.47984 5.99207H5.49805L5.51625 5.97358H5.53446L5.55267 5.95509H5.57087L5.58908 5.93659H5.60728L5.64369 5.8996H5.6619L5.71652 5.84412H5.73472L5.84395 5.73316V5.71466L5.89857 5.65918V5.64069L5.95319 5.58521V5.56671L5.97139 5.54822V5.52972L5.9896 5.51123V5.49273L6.0078 5.47424V5.45575L6.02601 5.43725V5.40026L6.04421 5.38177V5.34478L6.06242 5.32629V5.27081L6.08062 5.25231V5.17834L6.09883 5.15984V4.54954L6.11704 4.53104V4.45707L6.13524 4.43857V4.40159L6.15345 4.38309V4.3461L6.17165 4.32761V4.30912L6.18986 4.29062V4.27213L6.20806 4.25363V4.23514L6.22627 4.21664V4.19815L6.28088 4.14267V4.12417L6.46294 3.93923H6.48114L6.51756 3.90225H6.53576L6.55397 3.88375H6.57217L6.59038 3.86526H6.60858L6.62679 3.84676H6.64499L6.6632 3.82827H6.68141L6.69961 3.80978H6.75423L6.77243 3.79128H6.82705Z" fill="#4285F4"/>
</svg>
